<svg xmlns="http://www.w3.org/2000/svg" width="240" height="240" viewBox="0 0 240 240" role="img" aria-label="Canada">
  <defs>
    <clipPath id="clip"><rect x="8" y="18" width="224" height="170" rx="26" ry="26"/></clipPath>
  </defs>
  <rect width="240" height="240" fill="#ffffff"/>
  <g clip-path="url(#clip)">
    <rect x="8" y="18" width="74.66666666666667" height="170" fill="#ff0000"/>
    <rect x="82.66666666666667" y="18" width="74.66666666666667" height="170" fill="#ffffff"/>
    <rect x="157.33333333333334" y="18" width="74.66666666666666" height="170" fill="#ff0000"/>
    <polygon points="120,55 126,73 144,67 138,86 157,93 140,105 148,124 129,120 126,148 120,134 114,148 111,120 92,124 100,105 83,93 102,86 96,67 114,73" fill="#ff0000"/>
    <rect x="118" y="134" width="4" height="26" fill="#ff0000"/>
  </g>
</svg>